<?xml version="1.0" encoding="UTF-8" standalone="no"?>
<svg width="800" height="400" viewBox="0 0 800 400" fill="none" xmlns="http://www.w3.org/2000/svg">
  <!-- Water -->
  <rect x="0" y="250" width="800" height="150" fill="#1e3a8a" opacity="0.8"/>
  <path d="M0,250 C100,240 200,260 300,250 C400,240 500,260 600,250 C700,240 800,260 800,250 L800,400 L0,400 Z" fill="#1e3a8a" opacity="0.6"/>
  
  <!-- Boat Hull -->
  <path d="M200,250 L600,250 L550,320 L250,320 Z" fill="#0f172a"/>
  
  <!-- Antifouling Paint Line (Red) -->
  <path d="M250,320 L550,320 L530,350 L270,350 Z" fill="#e63946"/>
  
  <!-- Boat Cabin -->
  <rect x="300" y="200" width="200" height="50" fill="#334155"/>
  <rect x="350" y="150" width="100" height="50" fill="#334155"/>
  
  <!-- Windows -->
  <rect x="320" y="210" width="30" height="20" rx="5" fill="#f0f9ff"/>
  <rect x="370" y="210" width="30" height="20" rx="5" fill="#f0f9ff"/>
  <rect x="420" y="210" width="30" height="20" rx="5" fill="#f0f9ff"/>
  <rect x="450" y="210" width="30" height="20" rx="5" fill="#f0f9ff"/>
  <rect x="370" y="160" width="25" height="15" rx="3" fill="#f0f9ff"/>
  <rect x="405" y="160" width="25" height="15" rx="3" fill="#f0f9ff"/>
  
  <!-- Mast and Flag -->
  <rect x="400" y="80" width="5" height="120" fill="#64748b"/>
  <path d="M405,80 L440,90 L405,100 Z" fill="#e63946"/>
  
  <!-- Water Reflections -->
  <path d="M200,250 Q300,260 400,250 Q500,260 600,250" stroke="#f0f9ff" stroke-width="1" opacity="0.3"/>
  <path d="M250,270 Q350,280 450,270 Q550,280 650,270" stroke="#f0f9ff" stroke-width="1" opacity="0.2"/>
  
  <!-- Antifouling Visual Effect -->
  <path d="M270,350 Q400,340 530,350" stroke="#f87171" stroke-width="3" opacity="0.6"/>
</svg>
